:FULLY-SPECIFIED
:FORCE-ALL-JOINTS-BE-3DOF
:DEGREES
421
root 10.0923 16.7544 23.3715 8.16413 0.340079 -4.72743
lfemur -44.1295 2.46703 -18.6683
ltibia 34.4534 0 0
lfoot 1.12919 7.77966 0
ltoes 1.92085 0 0
rfemur 24.8603 3.02752 28.3196
rtibia 7.31528e-14 0 0
rfoot 9.41801 3.91051 0
rtoes -22.3075 0 0
lowerback -8.77415 2.76314 1.22441
upperback -1.79946 3.49013 2.17307
thorax 2.98216 1.74173 1.95036
lowerneck -19.4868 -6.95681 -14.6684
upperneck 21.9234 -9.00444 14.2777
head 11.7761 -3.65347 6.34443
lclavicle -6.32539e-15 -5.96354e-15 0
lhumerus -51.0294 -7.1516 92.5795
lradius 22.4522 0 0
lwrist 0.884618 0 0
lhand -7.18723 -22.5429 0
lfingers 7.12502 0 0
lthumb 18.6907 6.57915 0
rclavicle -6.32539e-15 -5.96354e-15 0
rhumerus -36.1808 10.0838 -88.6768
rradius 33.0314 0 0
rwrist -14.1029 0 0
rhand -29.0392 -24.6137 0
rfingers 7.12502 0 0
rthumb -2.3896 -54.58 0
422
root 10.1263 16.7844 23.5327 8.11786 0.166613 -4.23077
lfemur -43.4182 2.39967 -19.293
ltibia 34.5131 0 0
lfoot 0.468643 7.76081 0
ltoes 2.42704 0 0
rfemur 22.7393 2.56248 27.311
rtibia 4.59593 0 0
rfoot 10.1192 4.35838 0
rtoes -21.0949 0 0
lowerback -8.62526 2.74887 0.874955
upperback -1.88482 3.50843 2.02115
thorax 2.79934 1.75117 1.97903
lowerneck -19.4232 -6.91664 -14.6911
upperneck 21.943 -8.9264 14.1913
head 11.7532 -3.63261 6.32911
lclavicle -1.25117e-14 -4.53892e-15 0
lhumerus -50.3783 -6.59978 92.0617
lradius 22.0383 0 0
lwrist 0.0619033 0 0
lhand -7.18111 -22.504 0
lfingers 7.12502 0 0
lthumb 18.6966 6.61748 0
rclavicle -1.25117e-14 -4.53892e-15 0
rhumerus -36.8228 9.82121 -88.7223
rradius 32.6929 0 0
rwrist -13.9436 0 0
rhand -28.5804 -25.4684 0
rfingers 7.12502 0 0
rthumb -1.94651 -55.4369 0
423
root 10.1603 16.8144 23.6938 8.07159 -0.006854 -3.73411
lfemur -42.7069 2.3323 -19.9177
ltibia 34.5727 0 0
lfoot -0.191903 7.74196 0
ltoes 2.93323 0 0
rfemur 20.6184 2.09744 26.3023
rtibia 9.19187 0 0
rfoot 10.8203 4.80625 0
rtoes -19.8823 0 0
lowerback -8.47636 2.7346 0.5255
upperback -1.97019 3.52673 1.86924
thorax 2.61653 1.76061 2.0077
lowerneck -19.3595 -6.87647 -14.7138
upperneck 21.9626 -8.84835 14.1048
head 11.7303 -3.61176 6.31379
lclavicle -1.86979e-14 -3.11429e-15 0
lhumerus -49.7272 -6.04797 91.5439
lradius 21.6244 0 0
lwrist -0.760811 0 0
lhand -7.17499 -22.4651 0
lfingers 7.12502 0 0
lthumb 18.7025 6.65581 0
rclavicle -1.86979e-14 -3.11429e-15 0
rhumerus -37.4648 9.55861 -88.7677
rradius 32.3543 0 0
rwrist -13.7842 0 0
rhand -28.1217 -26.323 0
rfingers 7.12502 0 0
rthumb -1.50342 -56.2938 0
424
root 10.1943 16.8444 23.855 8.02531 -0.18032 -3.23745
lfemur -41.9956 2.26494 -20.5423
ltibia 34.6324 0 0
lfoot -0.85245 7.72311 0
ltoes 3.43942 0 0
rfemur 18.4974 1.6324 25.2937
rtibia 13.7878 0 0
rfoot 11.5215 5.25411 0
rtoes -18.6698 0 0
lowerback -8.32747 2.72032 0.176046
upperback -2.05555 3.54502 1.71732
thorax 2.43371 1.77005 2.03637
lowerneck -19.2959 -6.8363 -14.7366
upperneck 21.9822 -8.77031 14.0184
head 11.7074 -3.59091 6.29847
lclavicle -2.48842e-14 -1.68967e-15 0
lhumerus -49.0761 -5.49615 91.026
lradius 21.2105 0 0
lwrist -1.58353 0 0
lhand -7.16887 -22.4262 0
lfingers 7.12502 0 0
lthumb 18.7084 6.69415 0
rclavicle -2.48842e-14 -1.68967e-15 0
rhumerus -38.1068 9.29602 -88.8132
rradius 32.0158 0 0
rwrist -13.6249 0 0
rhand -27.6629 -27.1777 0
rfingers 7.12502 0 0
rthumb -1.06034 -57.1506 0
425
root 10.2282 16.8744 24.0161 7.97904 -0.353787 -2.74079
lfemur -41.2844 2.19758 -21.167
ltibia 34.6921 0 0
lfoot -1.513 7.70426 0
ltoes 3.94562 0 0
rfemur 16.3764 1.16736 24.2851
rtibia 18.3837 0 0
rfoot 12.2226 5.70198 0
rtoes -17.4572 0 0
lowerback -8.17858 2.70605 -0.173409
upperback -2.14091 3.56332 1.5654
thorax 2.2509 1.77949 2.06504
lowerneck -19.2323 -6.79613 -14.7593
upperneck 22.0017 -8.69227 13.932
head 11.6846 -3.57005 6.28315
lclavicle -3.10705e-14 -2.65047e-16 0
lhumerus -48.425 -4.94433 90.5082
lradius 20.7965 0 0
lwrist -2.40624 0 0
lhand -7.16274 -22.3873 0
lfingers 7.12502 0 0
lthumb 18.7143 6.73248 0
rclavicle -3.10705e-14 -2.65047e-16 0
rhumerus -38.7489 9.03342 -88.8586
rradius 31.6773 0 0
rwrist -13.4656 0 0
rhand -27.2041 -28.0324 0
rfingers 7.12502 0 0
rthumb -0.617247 -58.0075 0
426
root 10.2622 16.9044 24.1773 7.93277 -0.527254 -2.24413
lfemur -40.5731 2.13021 -21.7917
ltibia 34.7517 0 0
lfoot -2.17354 7.68541 0
ltoes 4.45181 0 0
rfemur 14.2555 0.702324 23.2764
rtibia 22.9797 0 0
rfoot 12.9238 6.14985 0
rtoes -16.2446 0 0
lowerback -8.02968 2.69178 -0.522864
upperback -2.22628 3.58162 1.41349
thorax 2.06808 1.78893 2.09371
lowerneck -19.1686 -6.75596 -14.782
upperneck 22.0213 -8.61422 13.8455
head 11.6617 -3.5492 6.26783
lclavicle -3.72567e-14 1.15958e-15 0
lhumerus -47.7739 -4.39252 89.9904
lradius 20.3826 0 0
lwrist -3.22896 0 0
lhand -7.15662 -22.3484 0
lfingers 7.12502 0 0
lthumb 18.7202 6.77081 0
rclavicle -3.72567e-14 1.15958e-15 0
rhumerus -39.3909 8.77083 -88.904
rradius 31.3387 0 0
rwrist -13.3062 0 0
rhand -26.7454 -28.887 0
rfingers 7.12502 0 0
rthumb -0.174159 -58.8644 0
